<?xml version="1.0" standalone="no"?>
<!DOCTYPE svg PUBLIC "-//W3C//DTD SVG 20010904//EN"
 "http://www.w3.org/TR/2001/REC-SVG-20010904/DTD/svg10.dtd">
<svg version="1.0" xmlns="http://www.w3.org/2000/svg"
 width="512.000000pt" height="512.000000pt" viewBox="0 0 512.000000 512.000000"
 preserveAspectRatio="xMidYMid meet">

<g transform="translate(0.000000,512.000000) scale(0.100000,-0.100000)"
fill="#000000" stroke="none">
<path d="M830 4235 c-223 -63 -340 -306 -246 -511 34 -73 106 -147 180 -184
l61 -31 5 -859 5 -858 24 -26 c30 -32 87 -35 122 -7 l24 19 5 867 5 867 52 20
c68 25 155 104 187 171 76 154 49 315 -74 438 -90 91 -228 128 -350 94z m194
-199 c117 -69 121 -240 7 -321 -36 -26 -52 -30 -105 -30 -51 0 -70 5 -103 27
-105 70 -122 209 -35 296 66 66 154 76 236 28z"/>
<path d="M2233 3768 c-20 -10 -112 -142 -587 -845 -152 -226 -158 -243 -106
-295 26 -26 36 -30 66 -25 20 3 41 10 47 16 7 5 147 210 312 455 165 245 303
444 307 443 4 -1 143 -202 309 -447 165 -245 306 -448 312 -452 7 -5 22 -11
35 -14 50 -14 75 11 212 214 73 108 195 287 269 397 l136 200 6 -74 c5 -65 9
-77 33 -98 38 -32 80 -30 117 6 34 34 34 32 18 289 -12 190 -18 211 -67 231
-26 11 -51 7 -218 -39 -240 -65 -243 -66 -260 -107 -18 -41 -9 -77 23 -103 31
-24 56 -25 135 -4 33 8 62 13 64 11 6 -6 -440 -661 -451 -661 -5 1 -142 196
-303 435 -161 239 -301 442 -310 451 -22 23 -71 30 -99 16z"/>
<path d="M2229 2945 c-14 -8 -31 -27 -38 -42 -8 -21 -11 -197 -9 -656 l3 -629
28 -24 c39 -33 81 -31 118 5 l29 29 0 636 0 635 -22 25 c-28 32 -74 41 -109
21z"/>
<path d="M3584 2950 c-56 -23 -54 -1 -54 -688 l0 -634 29 -29 c40 -39 82 -39
122 0 l29 30 -2 640 c-3 626 -3 641 -23 660 -24 24 -71 34 -101 21z"/>
<path d="M1539 2341 l-29 -29 0 -342 0 -342 29 -29 c37 -36 79 -38 118 -5 l28
24 3 336 c3 366 0 386 -54 406 -42 16 -64 12 -95 -19z"/>
<path d="M2905 2358 c-44 -25 -44 -27 -45 -390 0 -333 1 -349 20 -368 45 -45
114 -35 142 21 16 30 18 69 18 345 0 202 -4 322 -11 343 -18 50 -80 74 -124
49z"/>
<path d="M829 1606 c-144 -39 -260 -174 -275 -323 -27 -251 213 -460 456 -399
119 30 229 129 267 241 25 72 22 185 -6 257 -66 171 -265 272 -442 224z m205
-203 c150 -107 76 -346 -108 -347 -174 -2 -260 207 -135 326 22 21 54 42 72
47 52 17 127 5 171 -26z"/>
<path d="M4098 1606 c-107 -31 -212 -124 -245 -217 l-18 -49 -1158 0 c-960 0
-1163 -2 -1191 -14 -58 -24 -72 -104 -25 -144 18 -16 103 -17 1196 -22 l1176
-5 14 -40 c19 -59 81 -135 143 -177 149 -102 337 -83 466 46 81 81 108 148
108 266 0 103 -27 172 -100 250 -91 98 -243 142 -366 106z m202 -200 c58 -38
85 -89 85 -163 0 -52 -4 -68 -30 -104 -100 -142 -314 -95 -350 77 -16 79 49
190 127 213 50 16 126 5 168 -23z"/>
</g>
</svg>
