<?xml version="1.0" standalone="no"?>
<!DOCTYPE svg PUBLIC "-//W3C//DTD SVG 20010904//EN"
 "http://www.w3.org/TR/2001/REC-SVG-20010904/DTD/svg10.dtd">
<svg version="1.0" xmlns="http://www.w3.org/2000/svg"
 width="2560.000000pt" height="1494.000000pt" viewBox="0 0 2560.000000 1494.000000"
 preserveAspectRatio="xMidYMid meet">

<g transform="translate(0.000000,1494.000000) scale(0.100000,-0.100000)"
fill="#000000" stroke="none">
<path d="M6232 11726 c-117 -23 -211 -55 -312 -107 -457 -234 -685 -761 -544
-1257 31 -112 108 -268 175 -357 29 -38 870 -891 1869 -1895 998 -1004 2443
-2456 3210 -3228 897 -902 1424 -1425 1475 -1464 100 -75 232 -139 355 -174
82 -23 120 -27 285 -31 217 -6 313 4 450 49 110 36 217 92 310 163 39 30 698
685 1465 1457 767 772 2216 2229 3220 3238 1381 1389 1838 1854 1878 1912 303
443 253 1019 -121 1392 -137 137 -302 232 -492 283 -90 24 -117 27 -265 26
-145 0 -177 -3 -262 -26 -114 -30 -239 -86 -340 -153 -87 -57 61 90 -3237
-3226 -1399 -1407 -2547 -2558 -2551 -2558 -5 0 -1275 1275 -2824 2833 -1549
1557 -2853 2863 -2898 2900 -105 86 -267 168 -403 203 -125 32 -331 41 -443
20z"/>
</g>
</svg>
