<?xml version="1.0" standalone="no"?>
<!DOCTYPE svg PUBLIC "-//W3C//DTD SVG 20010904//EN"
 "http://www.w3.org/TR/2001/REC-SVG-20010904/DTD/svg10.dtd">
<svg version="1.0" xmlns="http://www.w3.org/2000/svg"
 width="1280.000000pt" height="1272.000000pt" viewBox="0 0 1280.000000 1272.000000"
 preserveAspectRatio="xMidYMid meet">

<g transform="translate(0.000000,1272.000000) scale(0.100000,-0.100000)"
fill="#000000" stroke="none">
<path d="M0 6360 l0 -6360 6400 0 6400 0 0 6360 0 6360 -6400 0 -6400 0 0
-6360z m6665 3941 c247 -51 390 -165 524 -416 45 -83 105 -250 276 -760 610
-1819 1010 -3012 1150 -3428 112 -334 160 -489 152 -493 -7 -2 -252 -3 -546
-2 l-534 3 -22 70 c-59 188 -193 610 -247 778 l-60 187 -973 0 -973 0 -17 -47
c-28 -80 -142 -414 -229 -673 -46 -135 -90 -262 -99 -282 l-16 -38 -505 0
c-278 0 -507 4 -510 8 -3 5 8 44 24 88 39 104 181 506 235 664 37 108 158 452
257 730 17 47 56 159 88 250 61 174 142 404 285 810 48 135 108 308 135 385
26 77 68 196 93 265 41 110 177 498 372 1055 137 393 206 526 338 655 109 106
244 174 397 199 101 16 307 12 405 -8z m-1852 -5640 c6 -6 26 -11 44 -11 18 0
41 -4 51 -9 9 -5 52 -15 95 -22 50 -9 77 -18 77 -26 0 -8 12 -13 28 -13 15 0
36 -6 47 -14 11 -7 36 -17 55 -21 45 -10 110 -38 110 -47 0 -5 9 -8 20 -8 11
0 20 -4 20 -10 0 -5 11 -10 25 -10 14 0 25 -4 25 -10 0 -5 7 -10 15 -10 8 0
19 -9 25 -20 6 -11 17 -20 24 -20 19 0 68 -26 93 -50 12 -11 27 -20 33 -20 5
0 10 -4 10 -10 0 -5 13 -16 29 -25 16 -8 32 -24 36 -35 3 -11 12 -20 18 -20 6
0 20 -9 32 -20 73 -72 158 -150 163 -150 12 0 62 -54 62 -67 0 -7 8 -13 17
-13 9 0 31 -15 48 -32 53 -55 148 -138 157 -138 4 0 8 -7 8 -15 0 -8 4 -15 10
-15 5 0 20 -11 34 -25 14 -14 29 -25 33 -25 5 0 15 -10 23 -21 8 -12 21 -27
28 -33 7 -6 36 -32 65 -58 29 -27 55 -48 58 -48 11 0 49 -37 49 -48 0 -6 9
-14 20 -17 11 -3 20 -13 20 -21 0 -8 5 -14 10 -14 6 0 25 -15 43 -32 18 -18
64 -60 102 -93 38 -33 102 -93 143 -132 41 -40 77 -73 80 -73 4 0 33 -25 65
-55 32 -30 62 -55 67 -55 6 0 10 -6 10 -14 0 -8 9 -17 19 -21 11 -3 23 -15 26
-26 4 -10 15 -19 26 -19 10 0 19 -4 19 -8 0 -13 36 -52 48 -52 5 0 20 -13 33
-30 13 -16 29 -30 35 -30 7 0 19 -11 28 -25 9 -14 21 -25 27 -25 14 0 39 -26
39 -39 0 -6 5 -11 11 -11 5 0 32 -22 58 -50 26 -27 51 -50 55 -50 4 0 36 -29
71 -65 35 -36 67 -65 70 -65 3 0 14 -8 24 -18 48 -44 68 -60 99 -77 17 -11 32
-25 32 -31 0 -6 14 -14 30 -18 17 -3 40 -15 52 -26 12 -11 34 -20 50 -20 15 0
28 -4 28 -10 0 -5 12 -10 26 -10 15 0 34 -8 43 -19 11 -13 37 -20 86 -26 39
-4 73 -12 77 -18 9 -15 367 -15 376 0 4 6 35 14 70 18 34 4 62 11 62 16 0 5 8
9 18 9 22 0 72 22 72 33 0 4 12 7 27 7 14 0 41 11 59 25 18 14 39 25 46 25 8
0 20 9 27 19 8 11 20 17 26 15 7 -3 15 2 18 10 4 9 13 16 22 16 8 0 15 4 15
10 0 10 47 60 57 60 8 0 53 44 53 53 0 12 47 57 60 57 5 0 10 9 10 20 0 11 5
20 10 20 6 0 10 7 10 15 0 8 5 15 10 15 6 0 10 6 10 14 0 8 7 27 15 43 8 15
20 43 27 61 7 17 16 32 20 32 5 0 8 14 8 30 0 17 5 30 10 30 6 0 10 13 10 29
0 17 5 33 10 36 6 3 10 28 10 55 0 27 4 51 9 54 14 9 -5 226 -20 226 -5 0 -9
13 -9 29 0 17 -4 33 -10 36 -5 3 -10 19 -10 36 0 16 -4 29 -10 29 -5 0 -10 7
-10 15 0 8 -4 15 -10 15 -5 0 -10 11 -10 24 0 14 -7 31 -15 40 -8 8 -15 24
-15 35 0 12 -4 21 -8 21 -5 0 -15 12 -23 28 -7 15 -28 40 -46 55 -18 16 -33
34 -33 41 0 12 -35 46 -48 46 -4 0 -23 18 -42 40 -19 22 -41 40 -48 40 -8 0
-27 14 -42 30 -15 17 -37 30 -49 30 -12 0 -21 5 -21 10 0 6 -7 10 -15 10 -8 0
-15 4 -15 10 0 5 -16 12 -35 16 -19 3 -35 10 -35 15 0 5 -8 9 -19 9 -10 0 -31
6 -46 14 -16 8 -57 18 -92 22 -44 4 -63 11 -63 20 0 11 -21 14 -92 15 -180 3
-282 -3 -293 -15 -5 -7 -44 -18 -85 -25 -41 -6 -76 -16 -78 -21 -2 -6 -17 -10
-33 -10 -16 0 -29 -4 -29 -10 0 -5 -15 -12 -34 -16 -19 -3 -37 -12 -40 -19 -2
-7 -18 -16 -35 -20 -17 -4 -31 -10 -31 -13 0 -4 -21 -20 -48 -37 -26 -16 -57
-39 -69 -52 -12 -13 -27 -23 -33 -23 -5 0 -10 -4 -10 -10 0 -5 -6 -10 -14 -10
-8 0 -17 -8 -20 -18 -3 -10 -16 -24 -28 -32 -12 -8 -36 -30 -54 -47 -17 -18
-34 -33 -37 -33 -10 0 -77 -69 -77 -80 0 -5 -6 -10 -13 -10 -6 0 -27 -15 -44
-32 -61 -62 -79 -78 -88 -78 -6 0 -21 -14 -34 -30 -13 -17 -29 -30 -37 -30 -8
0 -14 -3 -14 -8 0 -14 -51 -62 -66 -62 -8 0 -29 16 -47 35 -17 19 -35 35 -40
35 -4 0 -30 23 -58 50 -27 28 -54 50 -59 50 -5 0 -19 13 -32 30 -12 16 -30 32
-40 36 -11 3 -22 14 -26 23 -4 10 -40 46 -80 80 -77 66 -122 109 -122 116 0 3
6 5 13 5 7 0 23 11 35 25 12 14 26 25 32 25 5 0 10 7 10 15 0 8 4 15 8 15 4 0
25 16 46 35 21 19 42 35 47 35 5 0 9 7 9 15 0 8 11 17 25 21 13 3 27 14 30 24
3 10 19 25 35 32 17 7 30 17 30 21 0 11 52 67 62 67 5 0 27 18 49 40 23 22 45
40 50 40 5 0 9 7 9 15 0 9 11 20 24 25 13 5 28 15 33 23 4 8 18 19 31 26 12 6
22 18 22 27 0 8 12 20 28 26 15 7 39 24 54 38 49 46 89 70 117 70 11 0 22 8
25 18 6 16 89 62 114 62 7 0 12 5 12 10 0 6 9 10 20 10 11 0 20 4 20 8 0 5 23
14 51 21 28 8 63 20 78 27 14 8 36 14 49 14 12 0 22 6 22 13 0 9 27 18 85 27
47 7 88 17 91 22 3 4 24 8 48 8 23 0 48 6 55 13 17 17 563 17 569 -1 2 -7 22
-12 48 -12 24 0 44 -4 44 -9 0 -5 17 -11 38 -14 116 -17 132 -20 132 -32 0 -8
20 -16 50 -20 27 -4 52 -10 55 -15 2 -4 25 -13 49 -20 25 -7 54 -21 65 -31 11
-10 26 -19 34 -19 18 0 67 -23 67 -32 0 -5 7 -8 15 -8 8 0 15 -4 15 -10 0 -5
9 -10 20 -10 11 0 20 -4 20 -10 0 -5 12 -13 26 -16 15 -4 35 -14 45 -23 35
-32 48 -41 59 -41 5 0 10 -6 10 -14 0 -8 11 -17 25 -20 14 -4 25 -11 25 -16 0
-13 64 -75 85 -83 8 -4 15 -11 15 -17 0 -5 7 -10 15 -10 8 0 15 -7 15 -15 0
-8 4 -15 8 -15 13 0 62 -44 62 -55 0 -6 16 -23 35 -40 19 -16 35 -35 35 -42 0
-7 5 -13 10 -13 6 0 10 -7 10 -16 0 -18 23 -44 39 -44 6 0 11 -11 11 -25 0
-14 5 -25 10 -25 6 0 10 -6 10 -13 0 -7 8 -22 18 -33 10 -11 22 -32 26 -48 4
-16 14 -35 21 -43 8 -8 15 -25 15 -39 0 -14 7 -27 15 -30 8 -4 18 -24 21 -45
4 -21 12 -39 19 -39 8 0 15 -21 19 -57 11 -107 18 -143 27 -143 5 0 9 -27 9
-60 0 -33 4 -60 10 -60 6 0 10 -55 10 -145 0 -90 -4 -145 -10 -145 -6 0 -10
-27 -10 -60 0 -33 -4 -60 -9 -60 -9 0 -16 -36 -27 -140 -3 -30 -12 -60 -19
-65 -7 -6 -16 -28 -20 -48 -4 -22 -13 -37 -21 -37 -9 0 -14 -11 -14 -30 0 -18
-6 -33 -15 -36 -8 -3 -17 -21 -21 -40 -3 -19 -10 -34 -15 -34 -5 0 -9 -7 -9
-15 0 -8 -4 -15 -10 -15 -5 0 -10 -7 -10 -15 0 -8 -4 -15 -10 -15 -5 0 -10
-10 -10 -23 0 -15 -9 -29 -25 -37 -14 -7 -25 -22 -25 -32 0 -10 -4 -18 -10
-18 -5 0 -10 -9 -10 -20 0 -11 -5 -20 -10 -20 -17 0 -60 -47 -60 -65 0 -8 -6
-15 -14 -15 -8 0 -16 -7 -20 -15 -3 -8 -12 -15 -20 -15 -8 0 -18 -9 -21 -20
-4 -11 -10 -18 -15 -15 -5 3 -12 -6 -16 -20 -3 -14 -12 -25 -20 -25 -8 0 -14
-3 -14 -8 0 -4 -13 -13 -30 -20 -16 -8 -30 -20 -30 -28 0 -8 -11 -19 -24 -23
-13 -5 -26 -17 -30 -26 -3 -9 -19 -21 -36 -27 -17 -5 -35 -19 -41 -29 -5 -10
-18 -19 -29 -19 -10 0 -22 -4 -25 -10 -3 -5 -15 -10 -25 -10 -10 0 -22 -9 -25
-20 -3 -11 -14 -20 -23 -20 -10 0 -26 -6 -37 -14 -11 -7 -32 -16 -47 -20 -16
-3 -28 -11 -28 -16 0 -6 -7 -10 -16 -10 -8 0 -36 -10 -62 -22 -26 -12 -60 -23
-77 -25 -16 -2 -35 -9 -40 -17 -6 -8 -33 -17 -60 -21 -28 -4 -54 -11 -60 -15
-5 -4 -23 -10 -40 -13 -16 -3 -53 -10 -82 -16 -29 -5 -111 -13 -182 -17 -72
-4 -131 -11 -131 -15 0 -5 -7 -9 -15 -9 -8 0 -15 4 -15 8 0 6 -260 32 -332 33
-10 0 -20 4 -23 10 -4 5 -22 9 -41 9 -19 0 -34 4 -34 9 0 5 -24 13 -54 16 -32
4 -57 13 -60 21 -3 8 -18 14 -32 14 -33 0 -94 21 -94 32 0 4 -8 8 -17 8 -10 1
-36 9 -58 20 -22 11 -46 19 -52 20 -7 0 -13 4 -13 9 0 5 -13 12 -30 16 -16 4
-30 11 -30 16 0 5 -5 9 -11 9 -6 0 -31 14 -56 30 -24 17 -46 30 -49 30 -5 0
-19 11 -48 37 -8 7 -16 9 -20 6 -3 -4 -6 0 -6 8 0 8 -14 20 -31 26 -17 7 -33
21 -36 32 -3 12 -9 21 -14 21 -8 0 -32 20 -104 85 -18 17 -67 62 -110 100 -43
39 -92 85 -109 103 -17 17 -36 32 -43 32 -6 0 -15 9 -18 20 -3 11 -10 20 -15
20 -4 0 -25 16 -46 35 -22 19 -42 35 -46 35 -5 0 -8 6 -8 13 0 8 -11 19 -25
25 -14 7 -28 19 -31 27 -4 8 -11 15 -18 15 -6 0 -22 14 -35 30 -13 17 -29 30
-37 30 -8 0 -14 4 -14 8 0 11 -35 52 -44 52 -4 0 -18 11 -32 25 -14 14 -29 25
-34 25 -5 0 -11 8 -15 18 -3 11 -17 24 -30 30 -14 6 -25 18 -25 27 0 8 -4 15
-9 15 -4 0 -22 14 -39 30 -18 17 -34 30 -38 30 -3 0 -21 15 -39 33 -54 52
-237 221 -280 258 -22 19 -53 46 -69 62 -16 15 -33 27 -37 27 -5 0 -9 7 -9 15
0 8 -4 15 -9 15 -7 0 -48 32 -76 61 -5 5 -16 15 -23 22 -8 6 -31 29 -53 50
-21 20 -41 37 -44 37 -7 0 -44 32 -88 78 -17 17 -38 32 -44 32 -7 0 -13 5 -13
11 0 11 -63 79 -73 79 -3 0 -20 15 -39 33 -18 17 -43 38 -55 46 -12 8 -23 21
-26 30 -2 9 -17 23 -33 31 -16 8 -40 26 -54 40 -14 14 -37 32 -52 40 -15 7
-30 21 -33 30 -3 9 -25 21 -50 28 -25 7 -45 16 -45 22 0 5 -16 12 -35 16 -19
3 -35 10 -35 15 0 5 -12 9 -26 9 -14 0 -32 6 -39 14 -8 8 -46 17 -85 21 -46 5
-70 11 -70 20 0 28 -366 27 -383 -1 -4 -8 -21 -14 -36 -14 -36 0 -144 -21
-151 -30 -9 -11 -77 -40 -94 -40 -9 0 -16 -4 -16 -9 0 -5 -17 -16 -37 -24 -21
-8 -49 -27 -62 -41 -14 -14 -31 -26 -38 -26 -15 0 -81 -61 -167 -153 -42 -45
-86 -113 -86 -131 0 -8 -5 -16 -10 -18 -6 -2 -12 -14 -15 -28 -3 -14 -9 -26
-15 -28 -5 -2 -10 -12 -10 -23 0 -10 -4 -19 -10 -19 -5 0 -10 -11 -10 -25 0
-14 -4 -25 -10 -25 -5 0 -10 -18 -10 -39 0 -22 -5 -43 -10 -46 -6 -4 -10 -18
-9 -33 0 -15 -3 -54 -6 -87 -4 -33 -2 -94 5 -135 6 -41 13 -92 17 -113 3 -20
9 -40 14 -43 5 -3 9 -14 9 -25 0 -10 5 -19 10 -19 6 0 10 -7 10 -15 0 -8 5
-15 10 -15 6 0 10 -11 10 -24 0 -14 7 -31 15 -40 8 -8 15 -24 15 -35 0 -12 5
-21 10 -21 6 0 10 -5 10 -10 0 -12 11 -26 58 -75 17 -19 32 -38 32 -44 0 -5
10 -15 23 -24 12 -8 43 -35 69 -61 26 -25 53 -46 59 -46 7 0 22 -11 35 -25 13
-14 29 -25 37 -25 8 0 24 -9 37 -20 12 -11 38 -22 56 -26 19 -3 34 -10 34 -15
0 -5 9 -9 20 -9 11 0 20 -4 20 -10 0 -5 11 -10 24 -10 14 0 27 -4 30 -9 3 -4
34 -12 68 -15 35 -4 66 -12 69 -18 9 -14 369 -14 378 0 3 5 32 13 64 17 31 4
57 11 57 16 0 5 9 9 19 9 11 0 23 5 26 10 3 6 17 10 30 10 13 0 25 4 27 9 2 6
15 11 30 13 15 2 35 11 45 20 10 8 28 19 41 22 12 4 22 12 22 17 0 5 7 9 15 9
8 0 15 5 15 11 0 5 5 7 10 4 6 -3 10 -2 10 4 0 6 11 13 25 17 14 3 25 12 25
20 0 8 4 14 9 14 6 0 22 11 37 25 15 14 33 25 40 25 8 0 14 6 14 14 0 8 18 27
40 43 22 15 42 36 45 45 3 9 14 20 24 23 10 3 39 28 64 55 26 28 51 50 57 50
5 0 10 6 10 13 0 6 18 25 40 40 22 16 40 33 40 38 0 5 5 9 11 9 6 0 24 14 39
30 15 17 31 30 35 30 10 0 45 41 45 52 0 21 58 6 92 -24 20 -18 62 -55 93 -83
32 -27 72 -64 89 -81 17 -17 39 -34 49 -37 9 -4 17 -12 17 -18 0 -12 66 -79
77 -79 3 0 17 -13 31 -28 15 -16 35 -31 45 -35 9 -3 17 -13 17 -22 0 -8 7 -15
15 -15 8 0 15 -4 15 -10 0 -5 -4 -10 -9 -10 -5 0 -30 -19 -54 -43 -25 -23 -73
-67 -107 -97 -33 -30 -75 -70 -92 -87 -17 -18 -37 -33 -45 -33 -7 0 -13 -6
-13 -12 0 -7 -14 -24 -31 -38 -44 -35 -94 -80 -135 -117 -19 -18 -38 -33 -44
-33 -5 0 -11 -9 -15 -19 -3 -10 -15 -21 -26 -24 -11 -3 -23 -15 -26 -26 -3
-12 -20 -26 -39 -33 -18 -6 -32 -14 -29 -16 6 -7 -91 -74 -132 -92 -13 -5 -23
-14 -23 -20 0 -5 -9 -10 -19 -10 -11 0 -21 -3 -23 -7 -4 -10 -91 -53 -107 -53
-6 0 -11 -4 -11 -9 0 -5 -18 -12 -40 -16 -22 -4 -40 -11 -40 -16 0 -5 -11 -9
-25 -9 -14 0 -25 -4 -25 -10 0 -5 -16 -10 -35 -10 -22 0 -38 -6 -41 -14 -3 -9
-27 -17 -60 -22 -30 -3 -54 -10 -54 -14 0 -4 -15 -10 -32 -13 -18 -3 -55 -10
-83 -16 -140 -27 -693 -20 -703 10 -2 5 -19 9 -38 9 -19 0 -34 4 -34 9 0 5
-24 13 -54 16 -32 4 -57 13 -60 21 -3 8 -18 14 -32 14 -32 0 -94 21 -94 31 0
4 -18 10 -40 14 -22 4 -40 11 -40 15 0 5 -10 12 -22 15 -45 13 -110 48 -115
61 -3 8 -13 14 -23 14 -11 0 -22 5 -25 10 -3 6 -15 10 -27 10 -11 0 -22 8 -25
19 -3 12 -17 23 -34 26 -15 4 -31 15 -34 25 -3 10 -19 23 -35 29 -17 5 -30 16
-30 24 0 7 -11 20 -25 27 -13 7 -27 21 -31 32 -3 10 -12 18 -20 18 -8 0 -17 7
-20 15 -4 8 -10 13 -14 10 -5 -3 -11 4 -15 15 -3 11 -10 20 -15 20 -11 0 -60
45 -60 55 0 4 -13 20 -30 35 -16 15 -30 33 -30 39 0 7 -7 14 -15 17 -8 4 -15
14 -15 24 0 10 -9 21 -19 25 -11 3 -22 19 -26 35 -4 17 -11 30 -16 30 -5 0 -9
7 -9 15 0 8 -4 15 -10 15 -5 0 -10 7 -10 15 0 8 -4 15 -9 15 -5 0 -12 16 -15
35 -4 19 -11 35 -16 35 -5 0 -12 16 -16 35 -3 19 -12 35 -19 35 -8 0 -16 17
-20 40 -4 22 -10 40 -15 40 -4 0 -11 29 -15 65 -3 36 -11 67 -16 70 -5 4 -9
22 -9 41 0 19 -4 34 -10 34 -6 0 -10 26 -10 59 0 33 -4 63 -10 66 -5 3 -10 33
-10 66 0 33 -4 59 -10 59 -5 0 -10 7 -10 15 0 8 5 15 10 15 6 0 10 26 10 59 0
33 5 63 10 66 6 3 10 33 10 66 0 33 4 59 10 59 6 0 10 16 10 35 0 19 4 35 9
35 5 0 12 29 16 65 3 36 10 65 15 65 4 0 11 18 15 40 4 22 12 40 20 40 7 0 15
17 19 40 3 22 10 40 16 40 5 0 12 16 16 36 3 19 15 41 25 47 11 7 19 19 19 28
0 9 7 19 15 23 8 3 15 14 15 23 0 10 9 25 20 33 11 8 20 22 20 31 0 9 7 19 15
23 8 3 15 10 15 15 0 5 15 25 33 44 17 19 37 41 43 48 6 8 30 29 53 48 22 19
41 41 41 48 0 8 15 20 34 28 19 8 44 28 56 45 12 16 27 30 35 30 7 0 20 11 29
25 9 14 27 27 41 31 14 3 25 10 25 16 0 5 14 14 30 19 17 6 30 15 30 20 0 5 9
9 20 9 10 0 24 9 30 20 6 12 21 20 35 20 14 0 25 5 25 10 0 6 9 10 20 10 12 0
30 9 42 20 12 11 29 20 38 20 9 0 33 9 53 19 21 11 56 22 78 26 21 4 39 12 39
19 0 9 31 18 90 26 50 7 93 17 96 21 3 5 25 9 50 9 24 0 44 4 44 10 0 13 107
18 349 14 133 -2 218 -7 224 -13z"/>
<path d="M6395 9158 c-4 -11 -412 -1224 -622 -1848 -30 -90 -57 -170 -60 -177
-4 -11 122 -13 676 -13 375 0 681 4 681 8 0 4 -9 35 -19 68 -34 103 -169 526
-191 599 -21 66 -99 312 -210 660 -27 83 -74 231 -105 330 -31 99 -71 225 -89
279 -31 95 -50 124 -61 94z"/>
</g>
</svg>
