<?xml version="1.0" standalone="no"?>
<!DOCTYPE svg PUBLIC "-//W3C//DTD SVG 20010904//EN"
 "http://www.w3.org/TR/2001/REC-SVG-20010904/DTD/svg10.dtd">
<svg version="1.0" xmlns="http://www.w3.org/2000/svg"
 width="366.000000pt" height="320.000000pt" viewBox="0 0 366.000000 320.000000"
 preserveAspectRatio="xMidYMid meet">

<g transform="translate(0.000000,320.000000) scale(0.100000,-0.100000)"
fill="#000000" stroke="none">
<path d="M1680 3148 c-155 -16 -294 -75 -380 -161 -129 -129 -182 -317 -182
-652 0 -223 20 -327 92 -469 102 -204 243 -334 455 -422 61 -24 83 -28 165
-28 106 0 183 23 286 85 149 90 256 206 334 364 74 150 93 245 92 470 -2 347
-51 522 -183 653 -68 68 -185 126 -294 146 -97 18 -283 25 -385 14z m-60 -527
c0 -4 18 -29 41 -54 50 -57 173 -121 274 -142 90 -19 263 -19 385 0 52 8 101
15 108 15 17 0 16 -221 -2 -320 -53 -291 -271 -535 -531 -595 -58 -14 -72 -14
-131 0 -180 42 -373 202 -459 380 -58 121 -76 202 -82 372 l-6 153 29 37 c59
80 136 132 221 152 50 12 153 13 153 2z"/>
<path d="M1376 2370 c-32 -5 -67 -17 -78 -26 -22 -20 -24 -73 -4 -112 7 -15
16 -49 20 -76 8 -62 37 -110 79 -127 20 -9 71 -14 137 -14 162 0 213 33 258
165 16 46 23 55 43 55 19 0 25 -8 35 -41 26 -91 81 -154 151 -173 48 -14 177
-14 224 -1 49 14 86 50 97 96 5 22 15 59 21 84 24 85 25 124 3 144 -50 44
-338 45 -444 0 -72 -30 -104 -30 -178 1 -48 20 -80 25 -182 29 -68 3 -150 1
-182 -4z m321 -76 c36 -18 38 -21 36 -62 -5 -105 -83 -172 -200 -172 -115 0
-163 43 -165 148 -2 68 3 79 46 98 46 21 231 13 283 -12z m548 16 c36 -14 52
-58 45 -124 -7 -61 -27 -91 -77 -112 -39 -17 -127 -18 -174 -3 -62 20 -119
105 -119 177 0 44 76 69 222 71 42 0 88 -3 103 -9z"/>
<path d="M1225 1399 c-309 -166 -449 -250 -498 -297 -82 -80 -151 -243 -202
-478 l-27 -121 20 -40 c26 -51 125 -142 203 -188 240 -140 616 -214 1091 -215
628 0 1066 112 1269 326 84 89 85 93 59 225 -39 199 -97 354 -169 448 -47 64
-60 74 -216 163 -114 65 -183 104 -433 239 -29 16 -60 29 -67 29 -8 0 -45 -20
-82 -43 -63 -41 -136 -74 -208 -95 -27 -8 -35 -21 -80 -130 -27 -67 -52 -122
-55 -122 -3 0 -27 55 -55 122 l-50 121 -70 23 c-74 25 -124 49 -192 96 -23 15
-48 28 -55 28 -7 0 -90 -41 -183 -91z m683 -634 c1 -1 -19 -75 -45 -164 -46
-158 -48 -161 -75 -161 -16 0 -28 5 -28 13 0 16 85 302 95 317 5 9 40 6 53 -5z
m-218 -88 c0 -32 -3 -35 -65 -62 -36 -15 -65 -30 -65 -34 0 -4 29 -19 65 -35
47 -21 67 -35 71 -52 3 -12 3 -27 0 -33 -4 -5 -53 13 -116 42 -99 46 -110 54
-110 78 0 23 11 31 108 77 59 28 108 51 110 51 1 1 2 -14 2 -32z m468 -53 c25
-11 32 -20 32 -43 0 -26 -8 -32 -107 -78 -60 -28 -112 -47 -116 -43 -4 4 -5
19 -2 33 6 21 21 32 76 54 38 15 69 30 69 33 0 3 -32 18 -70 34 -67 27 -70 30
-70 62 l0 33 78 -35 c42 -20 92 -42 110 -50z"/>
</g>
</svg>
