<?xml version="1.0" standalone="no"?>
<!DOCTYPE svg PUBLIC "-//W3C//DTD SVG 20010904//EN"
 "http://www.w3.org/TR/2001/REC-SVG-20010904/DTD/svg10.dtd">
<svg version="1.0" xmlns="http://www.w3.org/2000/svg"
 width="900.000000pt" height="487.000000pt" viewBox="0 0 900.000000 487.000000"
 preserveAspectRatio="xMidYMid meet">

<g transform="translate(0.000000,487.000000) scale(0.100000,-0.100000)"
fill="#000000" stroke="none">
<path d="M1725 4861 c-144 -37 -215 -187 -150 -317 21 -43 66 -84 306 -285
155 -128 289 -239 297 -245 12 -9 -31 -34 -209 -126 -658 -338 -1311 -805
-1807 -1293 l-164 -160 164 -160 c663 -651 1599 -1258 2441 -1584 555 -215
1060 -331 1612 -372 193 -14 561 -6 760 16 368 41 778 131 1102 241 l163 55
352 -294 c194 -162 367 -301 383 -309 104 -53 243 -9 297 95 16 30 22 60 23
107 0 102 -14 120 -310 366 -143 119 -261 220 -263 223 -1 3 67 40 150 81 730
358 1435 851 1966 1374 l163 160 -123 124 c-506 510 -1276 1055 -1968 1394
-660 324 -1272 507 -1945 585 -211 24 -720 24 -930 0 -403 -47 -793 -134
-1155 -258 -113 -39 -210 -72 -216 -72 -7 -1 -177 135 -378 303 -202 168 -384
315 -404 327 -42 24 -113 35 -157 24z m3045 -761 c904 -67 1827 -413 2760
-1034 279 -185 536 -381 784 -598 l39 -34 -124 -105 c-554 -469 -1252 -906
-1827 -1145 l-82 -34 -453 376 c-248 207 -458 382 -465 389 -11 10 -10 19 6
51 80 158 123 464 92 664 -44 284 -185 553 -390 743 -174 161 -408 277 -640
318 -98 17 -345 17 -440 0 -150 -27 -331 -97 -453 -174 l-56 -36 -223 186
c-123 102 -224 188 -226 192 -5 15 368 119 578 161 394 78 774 106 1120 80z
m-1866 -690 c162 -135 295 -248 295 -252 1 -4 -17 -36 -39 -70 -48 -76 -112
-235 -142 -355 -19 -75 -23 -115 -23 -273 0 -158 4 -198 23 -273 86 -343 291
-623 584 -797 455 -271 1032 -231 1443 101 l82 67 347 -290 c192 -159 344
-293 340 -298 -15 -13 -308 -89 -462 -120 -716 -142 -1336 -115 -2070 91 -826
230 -1741 737 -2516 1393 l-119 100 44 39 c24 21 112 94 194 161 476 387 1006
723 1535 972 128 60 158 70 172 61 9 -7 150 -122 312 -257z m1551 -100 c169
-43 302 -118 421 -235 172 -170 256 -373 256 -615 0 -107 -22 -252 -41 -273
-8 -8 -1257 1028 -1255 1040 2 13 160 73 228 88 98 21 298 19 391 -5z m-286
-955 c364 -302 661 -552 661 -555 0 -7 -146 -104 -189 -125 -112 -56 -249 -85
-395 -85 -416 0 -769 280 -861 683 -36 157 -28 300 26 462 32 95 75 178 89
173 5 -2 306 -250 669 -553z"/>
</g>
</svg>
