<?xml version="1.0" standalone="no"?>
<!DOCTYPE svg PUBLIC "-//W3C//DTD SVG 20010904//EN"
 "http://www.w3.org/TR/2001/REC-SVG-20010904/DTD/svg10.dtd">
<svg version="1.0" xmlns="http://www.w3.org/2000/svg"
 width="900.000000pt" height="600.000000pt" viewBox="0 0 900.000000 600.000000"
 preserveAspectRatio="xMidYMid meet">

<g transform="translate(0.000000,600.000000) scale(0.100000,-0.100000)"
fill="#000000" stroke="none">
<path d="M3965 5965 c-254 -36 -341 -53 -550 -105 -1176 -298 -2246 -1071
-2987 -2160 -92 -135 -203 -316 -341 -556 l-88 -152 117 -188 c302 -491 569
-837 918 -1193 456 -463 921 -810 1451 -1082 481 -246 955 -404 1450 -481 168
-26 740 -37 959 -18 634 54 1369 316 1996 713 373 236 658 466 1000 807 386
384 611 663 958 1182 l152 227 -146 228 c-363 566 -648 928 -1034 1313 -657
657 -1403 1112 -2189 1334 -435 123 -601 145 -1146 151 -329 4 -360 3 -520
-20z m920 -995 c400 -43 896 -218 1325 -468 516 -300 1066 -808 1508 -1394
l104 -137 -91 -119 c-188 -247 -474 -555 -741 -799 -467 -427 -1136 -795
-1722 -947 -256 -67 -594 -103 -868 -92 -947 34 -1874 486 -2665 1297 -185
190 -457 514 -549 655 -32 50 -30 57 49 175 190 279 543 671 810 901 509 436
1127 750 1741 884 272 59 332 64 679 59 176 -2 365 -9 420 -15z"/>
<path d="M4330 4494 c-204 -19 -449 -114 -657 -253 -129 -86 -289 -243 -364
-354 -63 -94 -148 -256 -194 -368 -64 -158 -90 -341 -82 -588 4 -149 8 -180
40 -301 76 -291 203 -509 414 -711 55 -53 138 -121 184 -152 167 -110 387
-204 551 -234 129 -24 409 -23 533 1 470 91 830 367 1050 806 120 240 140 335
139 680 0 242 -2 260 -26 351 -47 174 -115 322 -224 485 -61 93 -216 260 -308
333 -194 155 -443 264 -661 290 -105 12 -330 21 -395 15z"/>
</g>
</svg>
