<?xml version="1.0" standalone="no"?>
<!DOCTYPE svg PUBLIC "-//W3C//DTD SVG 20010904//EN"
 "http://www.w3.org/TR/2001/REC-SVG-20010904/DTD/svg10.dtd">
<svg version="1.0" xmlns="http://www.w3.org/2000/svg"
 width="900.000000pt" height="540.000000pt" viewBox="0 0 900.000000 540.000000"
 preserveAspectRatio="xMidYMid meet">

<g transform="translate(0.000000,540.000000) scale(0.100000,-0.100000)"
fill="#000000" stroke="none">
<path d="M4210 5388 c-1114 -94 -2224 -646 -3351 -1666 -314 -284 -777 -782
-834 -896 -44 -87 -28 -167 52 -271 80 -102 270 -312 448 -494 941 -960 2022
-1632 3025 -1880 339 -84 592 -115 940 -115 548 -1 1034 98 1590 326 656 268
1280 669 1945 1248 313 274 879 872 940 994 30 61 32 124 5 184 -51 112 -482
578 -835 901 -1005 921 -2084 1493 -3085 1636 -309 44 -582 55 -840 33z m715
-482 c237 -33 478 -92 743 -182 824 -278 1695 -865 2487 -1675 99 -102 206
-215 239 -252 l58 -67 -68 -78 c-114 -130 -540 -550 -696 -685 -495 -432 -940
-738 -1446 -991 -484 -243 -1018 -400 -1481 -436 -1111 -86 -2284 399 -3471
1436 -144 125 -570 547 -684 676 l-68 78 38 47 c66 83 593 605 729 723 567
494 1151 872 1715 1113 367 156 817 274 1175 306 145 14 598 5 730 -13z"/>
<path d="M4345 4174 c-16 -2 -76 -14 -132 -25 -560 -111 -985 -522 -1129
-1092 -32 -127 -44 -394 -24 -540 62 -460 385 -897 804 -1092 482 -224 1022
-184 1448 107 106 72 280 240 356 343 71 97 143 232 187 349 123 334 115 734
-21 1064 -131 316 -378 578 -694 737 -215 108 -361 144 -600 150 -91 2 -178 1
-195 -1z m346 -479 c186 -39 336 -117 472 -245 218 -206 329 -478 314 -768
-22 -426 -315 -789 -726 -900 -84 -23 -115 -26 -256 -26 -142 0 -171 3 -259
27 -100 27 -221 82 -305 140 -74 49 -189 166 -241 242 -124 183 -180 357 -180
563 -1 455 300 843 741 957 116 30 323 34 440 10z"/>
</g>
</svg>
