<?xml version="1.0" standalone="no"?>
<!DOCTYPE svg PUBLIC "-//W3C//DTD SVG 20010904//EN"
 "http://www.w3.org/TR/2001/REC-SVG-20010904/DTD/svg10.dtd">
<svg version="1.0" xmlns="http://www.w3.org/2000/svg"
 width="900.000000pt" height="920.000000pt" viewBox="0 0 900.000000 920.000000"
 preserveAspectRatio="xMidYMid meet">

<g transform="translate(0.000000,920.000000) scale(0.100000,-0.100000)"
fill="#000000" stroke="none">
<path d="M6250 9170 c-172 -51 -311 -108 -431 -176 -130 -73 -169 -117 -169
-193 0 -37 51 -260 90 -391 5 -19 10 -44 10 -56 0 -25 -154 -198 -180 -202
-10 -2 -93 18 -186 43 -253 68 -340 70 -396 8 -68 -75 -244 -486 -263 -616
-18 -116 34 -166 390 -369 l60 -34 0 -134 0 -134 -170 -100 c-98 -58 -192
-122 -222 -152 -53 -50 -53 -51 -53 -112 0 -140 175 -564 271 -658 61 -59 113
-59 359 4 107 28 202 53 210 56 10 4 46 -24 108 -87 l92 -93 -45 -179 c-25
-99 -49 -212 -52 -251 -10 -127 21 -161 252 -274 162 -79 325 -137 412 -146
113 -12 150 23 302 288 96 168 81 158 247 158 l103 0 25 -32 c13 -18 61 -94
106 -168 140 -230 158 -246 274 -238 86 6 278 73 438 153 132 66 194 108 213
145 27 51 19 145 -26 317 -23 87 -46 177 -52 200 l-10 42 90 89 90 88 194 -48
c107 -27 221 -52 255 -55 105 -10 142 23 233 206 152 303 202 511 144 589 -27
36 -98 85 -275 188 l-148 86 0 132 0 131 148 88 c167 99 254 163 283 210 17
26 19 43 15 92 -14 151 -176 531 -266 624 -56 58 -97 67 -201 46 -46 -9 -139
-32 -206 -51 -67 -19 -135 -34 -152 -34 -25 0 -48 17 -123 88 l-92 89 18 64
c10 35 37 140 61 233 l44 170 -26 49 c-50 90 -224 190 -494 281 -193 66 -256
62 -326 -17 -30 -34 -124 -187 -197 -319 l-38 -68 -104 -2 c-57 -1 -118 -2
-136 -2 -30 -1 -34 5 -103 126 -134 237 -178 293 -247 322 -46 19 -34 21 -148
-14z m1300 -426 c62 -25 90 -41 90 -53 0 -9 -20 -99 -45 -201 -25 -102 -45
-203 -45 -224 0 -69 34 -120 141 -212 55 -47 130 -122 167 -166 80 -96 130
-128 196 -128 26 0 120 19 209 42 89 22 178 41 197 42 34 1 36 -1 78 -86 24
-48 41 -91 38 -96 -2 -4 -79 -52 -170 -106 -222 -132 -238 -146 -247 -222 -10
-81 -10 -421 0 -519 9 -78 10 -81 52 -117 24 -20 81 -59 126 -85 46 -26 117
-69 158 -95 86 -54 88 -62 52 -152 -31 -75 -49 -96 -79 -89 -13 3 -93 23 -178
45 -179 47 -237 50 -298 19 -47 -24 -257 -229 -366 -357 -82 -96 -82 -95 -17
-357 55 -224 58 -207 -41 -251 -106 -47 -98 -52 -202 122 -108 181 -161 245
-213 263 -50 16 -566 6 -606 -12 -28 -12 -99 -109 -157 -214 -71 -128 -121
-195 -144 -195 -23 0 -160 62 -169 77 -3 5 15 87 39 183 25 96 48 202 51 235
l5 61 -95 104 c-100 110 -199 208 -307 304 -65 58 -65 58 -115 51 -27 -3 -135
-26 -238 -51 -146 -35 -191 -43 -202 -34 -13 11 -75 158 -75 179 0 5 46 35
103 67 147 82 248 148 281 183 25 26 30 41 37 113 17 183 5 533 -21 574 -16
25 -128 98 -283 184 -115 64 -118 66 -112 95 8 46 58 167 70 171 6 3 97 -16
201 -41 105 -25 213 -45 239 -45 65 0 117 32 183 113 29 36 106 115 171 176
65 61 127 128 136 148 24 51 16 114 -39 313 -25 90 -46 172 -46 181 0 10 24
27 68 47 121 56 112 59 188 -60 131 -203 179 -272 206 -292 25 -18 47 -20 200
-24 95 -2 238 1 318 6 l144 10 33 38 c32 39 118 180 187 307 20 37 41 67 46
67 6 0 50 -16 100 -36z"/>
<path d="M6682 7894 c-81 -21 -195 -71 -260 -114 -76 -49 -190 -156 -248 -234
-190 -252 -221 -568 -83 -843 115 -230 286 -377 540 -465 87 -30 103 -33 224
-33 144 0 206 13 332 70 226 103 407 307 494 556 19 55 22 86 23 209 0 173
-14 244 -79 375 -82 168 -236 320 -410 406 -136 67 -229 89 -369 88 -63 0
-134 -7 -164 -15z m289 -368 c231 -49 362 -217 361 -461 0 -192 -62 -320 -196
-407 -148 -95 -346 -105 -515 -26 -187 88 -276 304 -226 543 43 201 162 311
390 359 43 8 123 5 186 -8z"/>
<path d="M2705 6090 c-77 -4 -156 -13 -175 -20 -49 -18 -97 -56 -115 -90 -8
-16 -28 -124 -45 -242 -41 -296 -58 -402 -69 -431 -8 -19 -29 -32 -93 -57 -46
-17 -134 -54 -196 -81 -62 -28 -118 -47 -125 -43 -6 4 -110 84 -230 178 -263
207 -293 227 -352 233 -95 11 -218 -79 -491 -359 -196 -201 -264 -296 -264
-372 0 -43 48 -118 234 -364 89 -117 167 -222 174 -232 12 -16 6 -36 -46 -152
-32 -73 -66 -156 -76 -184 -31 -95 -14 -89 -346 -133 -360 -49 -416 -66 -452
-141 -30 -61 -38 -158 -38 -455 0 -300 10 -447 34 -493 40 -77 74 -87 523
-147 218 -30 251 -42 272 -100 7 -22 43 -108 78 -192 l64 -152 -154 -203
c-256 -337 -267 -353 -267 -404 0 -61 32 -120 128 -234 81 -97 265 -280 382
-381 207 -179 234 -173 635 141 206 161 211 163 328 103 39 -20 112 -51 162
-69 58 -20 96 -40 108 -56 13 -18 28 -95 57 -302 54 -377 67 -421 135 -455
112 -55 769 -62 932 -10 49 16 88 67 106 140 9 35 30 163 47 284 41 292 50
342 63 354 7 5 41 20 77 34 36 14 121 50 189 81 l124 55 86 -66 c151 -116 384
-287 441 -323 119 -76 193 -37 488 254 233 229 334 362 336 440 1 63 -21 98
-337 509 l-87 114 44 94 c24 52 58 135 77 184 18 50 37 96 42 102 15 20 68 31
333 68 323 46 376 59 414 96 52 53 55 77 55 519 l0 405 -25 50 c-27 53 -70 88
-129 105 -20 6 -153 26 -296 46 -143 19 -277 39 -298 45 -43 11 -57 30 -92
124 -14 39 -47 114 -73 168 l-46 98 22 42 c12 23 68 101 123 172 141 181 237
318 260 370 25 56 16 96 -40 181 -92 142 -445 490 -576 569 -91 54 -120 51
-247 -34 -93 -63 -236 -169 -406 -303 l-64 -50 -126 55 c-70 30 -159 67 -199
82 -62 24 -74 32 -82 59 -6 17 -24 132 -41 256 -36 265 -45 319 -65 381 -30
89 -98 126 -244 134 -175 9 -430 11 -566 5z m428 -369 c21 -5 40 -11 43 -13 2
-2 22 -132 44 -289 51 -349 55 -367 88 -402 36 -39 66 -53 204 -99 65 -21 207
-79 316 -129 108 -50 207 -91 219 -91 43 -1 130 59 469 320 54 42 94 65 119
69 38 6 38 6 166 -126 73 -74 129 -140 129 -151 0 -10 -56 -94 -125 -187 -69
-92 -157 -215 -196 -273 -67 -98 -71 -107 -67 -150 3 -28 36 -113 90 -230 47
-102 100 -230 118 -285 42 -128 72 -196 97 -217 25 -23 111 -40 436 -87 147
-21 270 -41 273 -44 4 -3 3 -101 -1 -217 -7 -204 -8 -210 -29 -215 -11 -3
-149 -21 -306 -41 -157 -19 -295 -38 -307 -41 -57 -13 -112 -101 -171 -275
-23 -64 -76 -192 -119 -285 -115 -249 -120 -227 142 -578 91 -121 165 -228
165 -239 0 -24 -261 -286 -285 -286 -20 0 -93 51 -270 185 -145 110 -235 172
-272 186 -58 22 -121 13 -207 -32 -120 -61 -287 -131 -414 -173 -68 -23 -130
-51 -155 -70 -52 -39 -54 -49 -107 -425 -21 -150 -43 -278 -50 -285 -7 -7 -80
-12 -215 -14 -189 -3 -204 -2 -209 15 -3 10 -19 126 -36 258 -56 434 -69 460
-255 516 -107 32 -185 64 -357 146 -126 60 -167 75 -205 76 -79 0 -102 -14
-479 -303 l-137 -105 -144 149 c-78 82 -143 154 -143 160 0 14 22 45 180 256
64 85 139 188 166 229 66 100 65 120 -13 287 -91 194 -127 279 -163 389 -38
119 -49 141 -88 178 -34 33 -109 48 -447 92 -116 15 -220 34 -233 42 -22 13
-22 17 -22 217 l0 204 27 6 c16 3 141 22 278 42 288 40 372 58 398 82 29 26
55 83 97 211 21 64 76 198 123 298 47 101 88 196 92 212 4 17 0 44 -9 66 -20
46 -115 183 -241 345 -108 140 -139 192 -131 224 3 12 21 40 41 63 50 59 222
213 238 213 7 0 111 -74 231 -163 261 -197 317 -232 366 -232 24 0 94 28 213
83 98 46 245 105 327 133 170 58 215 88 230 154 15 64 37 205 65 415 14 107
28 205 32 218 5 22 7 22 177 22 94 0 188 -4 209 -9z"/>
<path d="M2825 4339 c-277 -33 -502 -154 -737 -397 -242 -251 -341 -490 -340
-822 0 -246 57 -429 203 -650 160 -241 386 -411 679 -512 l125 -42 200 -1
c177 0 209 3 277 22 175 51 361 148 492 255 202 168 373 439 427 677 33 149
28 402 -11 555 -50 196 -157 371 -339 556 -132 135 -221 197 -368 258 -232 96
-406 125 -608 101z m366 -398 c259 -69 450 -235 549 -480 41 -101 53 -176 52
-343 0 -179 -11 -237 -67 -353 -158 -332 -421 -487 -805 -472 -320 12 -537
140 -691 408 -77 133 -91 188 -97 380 -7 247 21 361 127 527 91 142 209 234
383 299 171 65 383 77 549 34z"/>
</g>
</svg>
