<?xml version="1.0" standalone="no"?>
<!DOCTYPE svg PUBLIC "-//W3C//DTD SVG 20010904//EN"
 "http://www.w3.org/TR/2001/REC-SVG-20010904/DTD/svg10.dtd">
<svg version="1.0" xmlns="http://www.w3.org/2000/svg"
 width="512.000000pt" height="512.000000pt" viewBox="0 0 512.000000 512.000000"
 preserveAspectRatio="xMidYMid meet">

<g transform="translate(0.000000,512.000000) scale(0.100000,-0.100000)"
fill="#000000" stroke="none">
<path d="M2379 4785 c-223 -37 -406 -130 -560 -284 -209 -209 -313 -492 -296
-806 28 -519 353 -964 804 -1102 78 -23 104 -26 233 -26 129 0 155 3 233 26
416 127 722 508 793 988 51 349 -55 689 -290 922 -232 232 -580 339 -917 282z"/>
<path d="M2320 2230 c-765 -79 -1395 -473 -1682 -1052 -94 -189 -165 -447
-155 -559 10 -115 81 -220 183 -270 l49 -24 1845 0 1845 0 50 25 c101 50 169
150 181 267 17 159 -108 518 -259 743 -301 451 -828 760 -1457 855 -124 19
-479 28 -600 15z"/>
</g>
</svg>
